<?xml version="1.0" encoding="UTF-8" standalone="no"?>
<!DOCTYPE svg PUBLIC "-//W3C//DTD SVG 1.1//EN" "http://www.w3.org/Graphics/SVG/1.1/DTD/svg11.dtd">
<svg xmlns="http://www.w3.org/2000/svg" xmlns:xlink="http://www.w3.org/1999/xlink" version="1.1" width="361pt" height="278pt" viewBox="0 0 361 278">
<g enable-background="new">
<clipPath id="cp0">
<path transform="matrix(1,0,0,-1,-493,815)" d="M 0 0 L 1920 0 L 1920 1080 L 0 1080 Z "/>
</clipPath>
<g clip-path="url(#cp0)">
<path transform="matrix(1,0,0,-1,-493,815)" d="M 0 1080 L 1920 1080 L 1920 0 L 0 0 Z " fill="#ffffff"/>
<g id="Layer-1" data-name="P">
<path transform="matrix(1,0,0,-1,-493,815)" d="M 612.9961 759.9641 L 624.1971 749.516 L 621.063 703.5723 L 643.5061 670.2965 L 727.8662 611.627 L 788.8593 601.2975 L 830.3623 548.2933 L 848.2968 541.2144 L 817.3131 594.7459 L 780.0885 674.0178 L 686.3639 740.7849 L 681.1097 755.8361 L 667.3969 796.1981 L 635.4449 808.9783 L 638.161 776.0544 L 612.9961 759.9641 Z M 612.9961 759.9641 " fill="#2c2c2c"/>
<path transform="matrix(1,0,0,1,119.99609,6.0217287)" stroke-width="4" stroke-linecap="butt" stroke-miterlimit="4" stroke-linejoin="miter" fill="none" stroke="#000000" d="M 0 49.01417 L 11.20098 59.46228 L 8.066902 105.406 L 30.50998 138.6818 L 114.8702 197.3513 L 175.8632 207.6808 L 217.3662 260.685 L 235.3007 267.7639 L 204.317 214.2323 L 167.0924 134.9604 L 73.36779 68.19335 L 68.11361 53.14217 L 54.40084 12.78016 L 22.44883 0 L 25.16487 32.92386 L 0 49.01417 Z M 0 49.01417 "/>
</g>
<g id="Layer-1" data-name="P">
<path transform="matrix(1,0,0,-1,-493,815)" d="M 637.0105 805.2562 L 655.5591 797.8158 L 670.3984 772.2875 L 659.8648 741.0804 L 627.4795 707.7756 L 627.3149 744.9453 L 617.1265 759.8957 L 643.0904 775.2452 L 637.0105 805.2562 Z M 637.0105 805.2562 " fill="#ffffff"/>
<path transform="matrix(1,0,0,1,124.126529,9.743774)" stroke-width="4" stroke-linecap="butt" stroke-miterlimit="4" stroke-linejoin="miter" fill="none" stroke="#3f4039" d="M 19.88394 0 L 38.43256 7.440456 L 53.27189 32.96869 L 42.73824 64.17587 L 10.35299 97.48061 L 10.18834 60.31095 L 0 45.36057 L 25.9639 30.01101 L 19.88394 0 Z M 19.88394 0 "/>
</g>
<g id="Layer-1" data-name="P">
<path transform="matrix(1,0,0,-1,-493,815)" d="M 502.4851 786.42 L 546.5125 811.4105 L 631.2646 810.4896 L 633.9101 778.2358 L 609.531 762.5455 L 563.3511 767.9284 L 521.6842 770.3909 L 497.6192 765.8211 L 502.4851 786.42 Z M 502.4851 786.42 " fill="#fee000"/>
<path transform="matrix(1,0,0,1,4.6192018,3.5894776)" stroke-width="4" stroke-linecap="butt" stroke-miterlimit="4" stroke-linejoin="miter" fill="none" stroke="#ff7f00" d="M 4.865884 24.99054 L 48.89327 0 L 133.6454 .9209151 L 136.2909 33.17469 L 111.9118 48.86504 L 65.7319 43.4821 L 24.06496 41.0196 L 0 45.58946 L 4.865884 24.99054 Z M 4.865884 24.99054 "/>
</g>
<g id="Layer-1" data-name="P">
<path transform="matrix(1,0,0,-1,-493,815)" d="M 647.4927 774.7014 L 660.5877 778.5963 L 654.9206 794.5812 L 644.4253 796.6728 L 643.6697 795.322 L 647.4927 774.7014 Z M 647.4927 774.7014 " fill="#fe7400"/>
</g>
<g id="Layer-1" data-name="P">
<path transform="matrix(1,0,0,-1,-493,815)" d="M 502.046 769.5374 L 505.3348 785.9705 L 547.475 808.4129 L 537.9443 772.6678 L 522.0985 773.2334 L 502.046 769.5374 Z M 502.046 769.5374 " fill="#20252a"/>
<path transform="matrix(1,0,0,1,9.04599,6.587097)" stroke-width="4" stroke-linecap="butt" stroke-miterlimit="4" stroke-linejoin="miter" fill="none" stroke="#000000" d="M 0 38.87548 L 3.288867 22.44244 L 45.429 0 L 35.89835 35.7451 L 20.05254 35.17958 L 0 38.87548 Z M 0 38.87548 "/>
</g>
<g id="Layer-1" data-name="P">
<path transform="matrix(1,0,0,-1,-493,815)" d="M 771.5864 644.5219 L 789.8808 603.3083 L 814.2245 598.5998 L 792.0318 644.2104 L 771.5864 644.5219 Z M 771.5864 644.5219 " fill="#ffffff"/>
<path transform="matrix(1,0,0,1,278.58644,170.47809)" stroke-width="4" stroke-linecap="butt" stroke-miterlimit="4" stroke-linejoin="miter" fill="none" stroke="#3f403a" d="M 0 0 L 18.29443 41.2136 L 42.63812 45.9221 L 20.44541 .311459 L 0 0 Z M 0 0 "/>
</g>
<g id="Layer-1" data-name="P">
<path transform="matrix(1,0,0,-1,-493,815)" d="M 647.556 790.3575 L 656.7014 790.3575 L 656.7014 781.0167 L 647.556 781.0167 L 647.556 790.3575 Z M 647.556 790.3575 " fill="#00a2ff"/>
</g>
<g id="Layer-1" data-name="P">
<path transform="matrix(1,0,0,-1,-493,815)" d="M 649.351 788.7822 L 654.9063 788.7822 L 654.9063 782.592 L 649.351 782.592 L 649.351 788.7822 Z M 649.351 788.7822 "/>
</g>
<g id="Layer-1" data-name="P">
</g>
<g id="Layer-1" data-name="P">
<text xml:space="preserve" transform="matrix(1 0 -0 1 30.110718 236.09619)" font-size="50" font-family="Skia" font-weight="bold"><tspan y="0" x="0 25.710001 56.770006 79.48 107.04 138.1">Tucano</tspan></text>
</g>
</g>
</g>
</svg>
